<svg xmlns="http://www.w3.org/2000/svg" width="219" height="35" viewBox="0 0 219 35">
    <g fill="none" fill-rule="evenodd">
        <g fill="#FFF" fill-rule="nonzero">
            <path d="M23.737 6.478a52.18 52.18 0 002.023-1.34 42.083 42.083 0 002.097-1.56c.27-.197.502-.423.699-.68.196-.257.294-.557.294-.9 0-.489-.172-.905-.515-1.248a1.703 1.703 0 00-1.25-.514c-.417 0-.834.172-1.251.514a68.931 68.931 0 01-3.09 2.13 27.88 27.88 0 01-3.292 1.836c-1.14.538-2.323.966-3.549 1.284a15.156 15.156 0 01-3.825.478H4.76a1.334 1.334 0 01-1.14-1.359V2c0-.49-.178-.906-.533-1.249C2.73.408 2.32.236 1.854.236c-.49 0-.907.172-1.25.514A1.698 1.698 0 00.087 2v3.524c0 .612.117 1.193.35 1.744.233.55.545 1.028.938 1.432.392.404.858.722 1.397.954.54.233 1.128.35 1.766.35h19.493c.367 0 .692.128.974.385.282.257.423.581.423.973 0 .367-.14.685-.423.954a1.37 1.37 0 01-.974.404H1.854c-.49 0-.907.172-1.25.514a1.698 1.698 0 00-.516 1.249c0 .489.172.905.515 1.248.344.342.76.514 1.25.514h22.031c.687 0 1.33-.129 1.931-.386a5.158 5.158 0 001.582-1.046c.454-.44.81-.955 1.067-1.542a4.705 4.705 0 00.386-1.91c0-.684-.129-1.321-.386-1.908a4.835 4.835 0 00-1.067-1.542c-.454-.44-.98-.79-1.582-1.047a4.857 4.857 0 00-1.93-.385h-.148zM32.522 14.482c0 .489.171.905.514 1.248.344.342.76.514 1.251.514h26.077c.49 0 .907-.172 1.25-.514.343-.343.515-.76.515-1.248 0-.49-.172-.906-.515-1.249a1.704 1.704 0 00-1.25-.514H34.287c-.49 0-.907.172-1.25.514a1.698 1.698 0 00-.515 1.249zM37.009.236c-.54 0-1.08.117-1.619.349a4.583 4.583 0 00-1.434.973c-.417.416-.76.918-1.03 1.505-.27.588-.404 1.249-.404 1.983V8.35c0 .661.19 1.102.57 1.322.38.22.974.33 1.784.33h24.679c.49 0 .907-.171 1.25-.514.343-.342.515-.758.515-1.248s-.172-.906-.515-1.248a1.703 1.703 0 00-1.25-.514H36.052v-1.8c0-.244.104-.458.313-.642.208-.183.484-.275.828-.275h23.17c.491 0 .908-.172 1.251-.514.343-.343.515-.759.515-1.248 0-.49-.172-.906-.515-1.249a1.704 1.704 0 00-1.25-.514H37.009zM94.67 13.086a59.73 59.73 0 00-3.457-2.845 29.56 29.56 0 00-2.978-2.001 26.808 26.808 0 002.942-2.001c1.03-.795 2.194-1.744 3.494-2.845a2.28 2.28 0 00.496-.624c.135-.245.203-.502.203-.771 0-.49-.172-.906-.515-1.249a1.704 1.704 0 00-1.25-.514c-.417 0-.834.172-1.251.514-1.57 1.371-2.887 2.442-3.954 3.213-1.067.77-2.023 1.34-2.869 1.707-.846.367-1.649.594-2.41.68a23.15 23.15 0 01-2.573.128h-.81a17.601 17.601 0 01-2.243-.202c-.687-.11-1.428-.361-2.225-.753-.797-.391-1.705-.967-2.722-1.725-1.017-.76-2.262-1.775-3.733-3.048a3.867 3.867 0 00-.588-.367 1.462 1.462 0 00-.663-.147c-.49 0-.907.172-1.25.514A1.698 1.698 0 0065.799 2c0 .269.067.526.202.77.135.245.3.453.497.625a54.214 54.214 0 003.457 2.827 31.353 31.353 0 002.98 1.982 28.133 28.133 0 00-2.962 2.001 63.894 63.894 0 00-3.475 2.882c-.196.172-.362.38-.497.624a1.574 1.574 0 00-.202.772c0 .489.172.905.515 1.248.343.342.76.514 1.25.514.246 0 .466-.05.663-.147a3.89 3.89 0 00.588-.367c1.496-1.322 2.758-2.362 3.788-3.121 1.03-.759 1.956-1.328 2.777-1.707.821-.38 1.594-.624 2.317-.734.723-.11 1.514-.166 2.372-.166h.552c.956 0 1.802.037 2.538.11.735.074 1.52.294 2.354.661.834.367 1.784.936 2.85 1.708 1.067.77 2.397 1.854 3.99 3.249.418.342.835.514 1.251.514.49 0 .907-.172 1.25-.514.344-.343.516-.76.516-1.248 0-.27-.068-.527-.203-.772a2.28 2.28 0 00-.496-.624zM126.11 16.244c.49 0 .907-.172 1.25-.514.344-.343.515-.76.515-1.248 0-.49-.171-.906-.515-1.249a1.704 1.704 0 00-1.25-.514h-10.887V1.999c0-.49-.171-.906-.515-1.249a1.703 1.703 0 00-1.25-.514c-.49 0-.908.172-1.25.514A1.698 1.698 0 00111.691 2v10.72H100.66a1.822 1.822 0 00-1.14.57c-.32.33-.479.727-.479 1.193 0 .489.172.905.515 1.248.344.342.76.514 1.25.514h25.305zM130.075.897c-.368-.44-.822-.66-1.361-.66-.49 0-.907.17-1.25.513A1.698 1.698 0 00126.947 2c0 .44.123.795.368 1.064l8.938 12.006c.416.563.968 1.022 1.655 1.377a4.736 4.736 0 002.207.532c.735 0 1.434-.16 2.096-.477a4.283 4.283 0 001.618-1.322l8.938-11.932c.147-.171.27-.361.367-.57.098-.207.148-.433.148-.678 0-.49-.172-.906-.515-1.249a1.705 1.705 0 00-1.25-.514c-.59 0-1.055.233-1.399.698l-8.57 11.418c-.17.196-.385.41-.643.643-.257.232-.52.348-.79.348s-.534-.116-.791-.348a4.712 4.712 0 01-.607-.643L130.075.897zM180.606 6.478a52.18 52.18 0 002.023-1.34 42.083 42.083 0 002.096-1.56c.27-.197.503-.423.7-.68.195-.257.293-.557.293-.9 0-.489-.171-.905-.514-1.248a1.703 1.703 0 00-1.25-.514c-.418 0-.835.172-1.251.514a68.931 68.931 0 01-3.09 2.13 27.88 27.88 0 01-3.292 1.836c-1.14.538-2.323.966-3.549 1.284a15.156 15.156 0 01-3.825.478h-7.319a1.334 1.334 0 01-1.14-1.359V2c0-.49-.178-.906-.533-1.249-.356-.342-.767-.514-1.232-.514-.491 0-.908.172-1.251.514A1.698 1.698 0 00156.957 2v3.524c0 .612.117 1.193.35 1.744.233.55.545 1.028.937 1.432.393.404.858.722 1.398.954.54.233 1.128.35 1.765.35H180.9c.368 0 .693.128.975.385.282.257.423.581.423.973 0 .367-.14.685-.423.954a1.37 1.37 0 01-.975.404h-22.177c-.491 0-.908.172-1.251.514a1.698 1.698 0 00-.515 1.249c0 .489.172.905.515 1.248.343.342.76.514 1.25.514h22.031c.687 0 1.33-.129 1.931-.386a5.158 5.158 0 001.582-1.046c.453-.44.809-.955 1.066-1.542a4.705 4.705 0 00.386-1.91c0-.684-.128-1.321-.386-1.908a4.835 4.835 0 00-1.066-1.542c-.454-.44-.98-.79-1.582-1.047a4.857 4.857 0 00-1.93-.385h-.148zM216.46 16.244c.49 0 .907-.172 1.25-.514.344-.343.515-.76.515-1.248 0-.49-.171-.906-.515-1.249a1.704 1.704 0 00-1.25-.514h-10.887V1.999c0-.49-.171-.906-.515-1.249a1.703 1.703 0 00-1.25-.514c-.49 0-.908.172-1.25.514A1.698 1.698 0 00202.042 2v10.72h-11.034a1.822 1.822 0 00-1.14.57c-.32.33-.479.727-.479 1.193 0 .489.172.905.515 1.248.344.342.76.514 1.25.514h25.305z" transform="matrix(1 0 0 -1 0 34.211) translate(0 7.36)"/>
        </g>
        <path fill="#FFF" fill-rule="nonzero" d="M80.39 28.086a3.327 3.327 0 003.328-3.322 3.327 3.327 0 00-3.329-3.323 3.327 3.327 0 00-3.328 3.323 3.327 3.327 0 003.328 3.322z" transform="matrix(1 0 0 -1 0 34.211)"/>
        <path stroke="#FFF" stroke-width="1.254" d="M69.017 28.96c6.325 4.903 12.847 5.851 19.292 1.802" transform="matrix(1 0 0 -1 0 34.211)"/>
        <path fill="#FFF" fill-rule="nonzero" d="M91.399 28.522L87.754 33.86 87.008 31.539 84.984 30.139z" transform="matrix(1 0 0 -1 0 34.211)"/>
        <path stroke="#FFF" stroke-width="1.254" d="M91.4 5.038C85.07.134 78.551-.814 72.103 3.238" transform="matrix(1 0 0 -1 0 34.211)"/>
        <path fill="#FFF" fill-rule="nonzero" d="M69.017 5.476L72.662 0.137 73.408 2.46 75.431 3.861z" transform="matrix(1 0 0 -1 0 34.211)"/>
    </g>
</svg>
